<svg width="255" height="255" viewBox="0 0 255 255" fill="none" xmlns="http://www.w3.org/2000/svg">
<g clip-path="url(#clip0_540_695)">
<path d="M26.4648 183.105C45.5078 167.969 44.1406 143.945 51.9531 143.945C56.0547 143.945 60.2539 147.461 66.9922 156.348C78.7109 171.289 86.2305 178.516 93.6523 178.516C100.586 178.516 109.473 167.871 109.473 159.766C109.473 155.371 101.367 150.684 101.367 147.559C101.367 145.605 103.418 144.629 106.25 144.629C125.293 144.629 139.551 128.711 139.551 117.578C139.551 109.18 126.367 101.367 126.367 96.0938C126.367 93.9453 128.027 92.4805 130.078 92.4805C131.543 92.4805 133.398 93.2617 136.328 95.1172C149.414 104.98 155.859 100.586 156.836 93.0664C157.227 89.8438 159.082 86.8164 166.504 83.3984C180.957 76.0742 191.797 64.9414 191.797 56.543C191.797 46.875 174.316 39.3555 174.316 35.4492C174.316 33.3008 178.223 30.957 187.305 28.2227C173.633 15.7227 151.758 8.20312 127.051 8.20312C54.9805 10.3516 9.27734 63.8672 8.98438 127.246C8.88672 146.973 15.0391 167.773 26.4648 183.105ZM183.301 233.398C207.812 217.969 225.977 198.73 237.891 176.074C235.645 159.961 228.027 151.074 217.48 151.074C214.551 151.074 211.035 151.562 207.617 152.734C203.027 154.199 201.758 153.809 198.047 149.609C192.969 143.848 188.77 141.797 181.836 141.797C168.652 141.797 161.426 148.34 155.762 165.527C154.004 171.094 151.562 172.949 142.383 176.465L137.012 178.418C127.344 182.129 124.902 188.965 128.32 203.906C131.348 216.797 137.5 223.438 146.289 223.438C154.297 223.438 159.375 220.41 165.137 220.41C173.535 220.312 177.637 225.586 183.301 233.398ZM156.25 119.434C164.355 119.434 167.969 112.109 177.148 109.473C183.203 107.715 186.426 101.465 186.426 96.2891C186.426 91.9922 184.277 88.3789 179.688 88.3789C174.805 88.3789 170.215 92.1875 167.285 98.4375C165.625 102.148 162.988 103.906 156.25 105.762C150.977 107.324 149.121 109.277 149.121 113.281C149.121 117.578 152.441 119.434 156.25 119.434ZM120.02 177.246C127.148 177.246 134.082 169.043 134.082 161.523C134.082 152.539 130.371 148.242 126.074 148.242C121.289 148.242 118.262 153.809 118.262 162.402C118.262 167.188 113.965 167.383 113.965 172.363C113.965 175.293 116.406 177.246 120.02 177.246ZM98.1445 200.195C103.516 200.195 107.031 197.363 107.031 192.773C107.031 189.258 104.297 187.109 100.488 187.109C85.4492 187.109 84.8633 178.516 77.5391 178.516C73.5352 178.516 70.7031 180.859 70.7031 184.375C70.7031 187.207 73.5352 189.258 77.2461 189.258C85.3516 189.258 81.543 200.195 98.1445 200.195ZM127.148 254.395C196.777 254.395 254.395 196.777 254.395 127.246C254.395 57.6172 196.68 0 127.051 0C57.5195 0 0 57.6172 0 127.246C0 196.777 57.6172 254.395 127.148 254.395ZM127.148 239.551C65.7227 239.551 14.8438 188.672 14.8438 127.246C14.8438 65.7227 65.625 14.8438 127.051 14.8438C188.574 14.8438 239.551 65.7227 239.551 127.246C239.551 188.672 188.672 239.551 127.148 239.551Z" fill="black" fill-opacity="0.85"/>
</g>
<defs>
<clipPath id="clip0_540_695">
<rect width="254.395" height="254.59" fill="white"/>
</clipPath>
</defs>
</svg>
